<?xml version="1.0" encoding="UTF-8"?>
<svg version="1.1" xmlns="http://www.w3.org/2000/svg" width="510" height="510">
<path d="M0 0 C168.3 0 336.6 0 510 0 C510 168.3 510 336.6 510 510 C341.7 510 173.4 510 0 510 C0 341.7 0 173.4 0 0 Z " fill="#1F1F1F" transform="translate(0,0)"/>
<path d="M0 0 C1.15680267 0.00212242 1.15680267 0.00212242 2.3369751 0.00428772 C4.79239838 0.00987091 7.24772942 0.0224203 9.703125 0.03515625 C11.37109243 0.04017342 13.03906129 0.04473595 14.70703125 0.04882812 C18.78909787 0.05983484 22.87109581 0.07708789 26.953125 0.09765625 C26.953125 0.75765625 26.953125 1.41765625 26.953125 2.09765625 C26.293125 2.09765625 25.633125 2.09765625 24.953125 2.09765625 C24.69184814 2.81743652 24.43057129 3.5372168 24.16137695 4.27880859 C22.9071229 7.204979 21.42494332 9.57820767 19.62109375 12.19921875 C18.5690979 13.73751343 18.5690979 13.73751343 17.49584961 15.30688477 C17.11476044 15.85949982 16.73367126 16.41211487 16.34103394 16.98147583 C14.66497514 19.41258133 13.00017672 21.85132636 11.33460999 24.28962708 C10.40765252 25.64656821 9.48017523 27.00315436 8.55223083 28.35942078 C2.12141067 37.76345961 -4.24118931 47.21364942 -10.609375 56.66015625 C-11.238508 57.59296417 -11.86764099 58.52577209 -12.51583862 59.48684692 C-18.39251229 68.20053547 -24.26864677 76.91448262 -30.09765625 85.66015625 C-30.83048828 86.75787354 -31.56332031 87.85559082 -32.31835938 88.98657227 C-33.71326545 91.09107367 -35.09625343 93.2035266 -36.46679688 95.32397461 C-39.97215621 100.70655483 -43.57487942 105.83262885 -47.59846497 110.83448792 C-66.50491684 134.42779658 -68.61716674 149.3199382 -67.046875 180.09765625 C-83.546875 180.09765625 -100.046875 180.09765625 -117.046875 180.09765625 C-120.99527521 146.74048207 -111.41811259 131.85292055 -91.66552734 105.91796875 C-86.95598827 99.70587188 -82.73362971 93.23031727 -78.546875 86.66015625 C-77.08185168 84.40852095 -75.61454611 82.15852104 -74.14453125 79.91015625 C-73.35429132 78.69794151 -72.56409138 77.4857007 -71.77392578 76.2734375 C-66.51023094 68.20741471 -61.21939734 60.15916744 -55.92578125 52.11276245 C-54.65140866 50.17462075 -53.37809866 48.23577986 -52.10595703 46.2961731 C-25.40043535 5.58063722 -25.40043535 5.58063722 -10.40625 0.546875 C-6.94698784 -0.11175935 -3.50707238 -0.0242987 0 0 Z " fill="#FBFBFB" transform="translate(282.046875,200.90234375)"/>
<path d="M0 0 C55.44 0 110.88 0 168 0 C168 11.22 168 22.44 168 34 C112.56 34 57.12 34 0 34 C0 22.78 0 11.56 0 0 Z " fill="#FAFAFA" transform="translate(167,128)"/>
<path d="M0 0 C1.14080521 0.00015106 2.28161041 0.00030212 3.45698547 0.00045776 C4.67798447 0.01078033 5.89898346 0.02110291 7.15698242 0.03173828 C8.41508224 0.03456818 9.67318207 0.03739807 10.96940613 0.04031372 C14.30182499 0.04959957 17.63396664 0.06754602 20.96630859 0.08972168 C24.3716387 0.11024061 27.77699837 0.11943817 31.18237305 0.12939453 C37.85505453 0.14973187 44.52725252 0.18888473 51.19995117 0.22705078 C51.19995117 11.44705078 51.19995117 22.66705078 51.19995117 34.22705078 C24.13995117 34.22705078 -2.92004883 34.22705078 -30.80004883 34.22705078 C-30.80004883 24.22705078 -30.80004883 24.22705078 -29.80004883 21.22705078 C-29.14004883 21.22705078 -28.48004883 21.22705078 -27.80004883 21.22705078 C-27.69692383 20.48326172 -27.59379883 19.73947266 -27.48754883 18.97314453 C-25.70559489 11.85545353 -18.88578039 7.24996035 -13.01098633 3.45361328 C-8.58376626 0.997523 -5.08243434 -0.02253851 0 0 Z " fill="#F8F8F8" transform="translate(285.800048828125,346.77294921875)"/>
</svg>
